<svg width="24" height="39" viewBox="0 0 24 39" fill="none" xmlns="http://www.w3.org/2000/svg">
<path d="M18.586 0.456V31.919C18.586 34.0603 18.9753 35.5203 19.754 36.299C20.5813 37.0777 21.944 37.467 23.842 37.467V39C22.8687 38.9513 21.433 38.9027 19.535 38.854C17.6857 38.7567 15.7633 38.708 13.768 38.708C11.286 38.708 8.877 38.7567 6.541 38.854C4.25367 38.9027 2.47733 38.9513 1.212 39V37.467C3.402 37.467 5.081 37.0777 6.249 36.299C7.46567 35.4717 8.074 33.8657 8.074 31.481V13.669C8.074 11.333 7.87933 9.60533 7.49 8.486C7.10067 7.36667 6.37067 6.63667 5.3 6.296C4.22933 5.95533 2.76933 5.785 0.92 5.785V4.179C5.10533 4.08166 8.56067 3.76533 11.286 3.23C14.06 2.69466 16.4933 1.77 18.586 0.456Z" fill="#B18373"/>
</svg>
