<svg width="34" height="40" viewBox="0 0 34 40" fill="none" xmlns="http://www.w3.org/2000/svg">
<path d="M18.075 0.236999C21.8223 0.236999 24.791 1.04 26.981 2.646C29.171 4.252 30.266 6.53933 30.266 9.508C30.266 11.406 29.7793 13.1337 28.806 14.691C27.8813 16.2483 26.6403 17.7327 25.083 19.144C23.5257 20.5067 21.8467 21.7963 20.046 23.013C18.294 24.2297 16.5907 25.4463 14.936 26.663C13.2813 27.831 11.87 29.0477 10.702 30.313H26.47C28.4653 30.313 29.7307 30.0697 30.266 29.583C30.8013 29.0963 31.1663 28.2447 31.361 27.028H32.894C32.894 30.2887 32.9183 32.8193 32.967 34.62C33.0157 36.4207 33.0887 38.0023 33.186 39.365C32.748 39.2677 31.945 39.1947 30.777 39.146C29.609 39.0973 28.2707 39.0487 26.762 39C25.2533 39 23.769 39 22.309 39H1.066V37.613C2.42867 36.153 4.10767 34.547 6.103 32.795C8.09833 31.043 10.045 29.0963 11.943 26.955C13.8897 24.8137 15.52 22.502 16.834 20.02C18.148 17.4893 18.805 14.7883 18.805 11.917C18.805 9.289 18.221 7.391 17.053 6.223C15.885 5.055 14.206 4.471 12.016 4.471C9.92333 4.471 8.074 4.95767 6.468 5.931C4.91067 6.85567 3.49933 8.24267 2.234 10.092L0.993 9.362C1.96633 7.70733 3.183 6.19866 4.643 4.836C6.15167 3.42467 8.001 2.30533 10.191 1.478C12.381 0.650666 15.009 0.236999 18.075 0.236999Z" fill="#B18373"/>
</svg>
