<svg width="32" height="51" viewBox="0 0 32 51" fill="none" xmlns="http://www.w3.org/2000/svg">
<path d="M15.958 0.236999C18.3427 0.236999 20.484 0.577665 22.382 1.259C24.28 1.89167 25.7643 2.84067 26.835 4.106C27.9057 5.32267 28.441 6.83133 28.441 8.632C28.441 10.4813 27.8327 12.209 26.616 13.815C25.448 15.421 23.7447 16.8323 21.506 18.049C19.316 19.217 16.688 20.093 13.622 20.677C16.9313 20.531 19.9 20.8717 22.528 21.699C25.156 22.5263 27.2243 23.7917 28.733 25.495C30.2903 27.1497 31.069 29.2423 31.069 31.773C31.069 34.0117 30.4607 36.08 29.244 37.978C28.076 39.876 26.4457 41.555 24.353 43.015C22.2603 44.5237 19.8757 45.789 17.199 46.811C14.571 47.8817 11.797 48.6847 8.877 49.22C5.957 49.7553 3.037 50.023 0.117 50.023V48.563C2.40433 48.5143 4.716 48.1007 7.052 47.322C9.43667 46.592 11.6023 45.5213 13.549 44.11C15.5443 42.7473 17.1503 41.044 18.367 39C19.5837 36.9073 20.192 34.5227 20.192 31.846C20.192 28.9747 19.5107 26.6143 18.148 24.765C16.7853 22.9157 14.9117 21.8937 12.527 21.699C11.797 22.0397 11.14 22.3317 10.556 22.575C9.972 22.7697 9.388 22.867 8.804 22.867C8.366 22.867 8.02533 22.794 7.782 22.648C7.53867 22.502 7.417 22.2343 7.417 21.845C7.417 21.261 7.66033 20.8473 8.147 20.604C8.63367 20.3607 9.169 20.239 9.753 20.239C10.1423 20.239 10.5317 20.2877 10.921 20.385C11.359 20.4337 11.8213 20.4823 12.308 20.531C14.4007 19.071 15.8607 17.5137 16.688 15.859C17.5153 14.1557 17.929 12.4523 17.929 10.749C17.929 8.559 17.345 6.953 16.177 5.931C15.0577 4.86033 13.476 4.325 11.432 4.325C9.534 4.325 7.75767 4.81167 6.103 5.785C4.44833 6.70967 3.06133 8.121 1.942 10.019L0.628 9.362C1.504 7.756 2.599 6.27167 3.913 4.909C5.227 3.49767 6.85733 2.37833 8.804 1.551C10.7507 0.674999 13.1353 0.236999 15.958 0.236999Z" fill="#B18373"/>
</svg>
