<svg width="37" height="50" viewBox="0 0 37 50" fill="none" xmlns="http://www.w3.org/2000/svg">
<path d="M27.813 0.236999L28.105 2.135L5.329 31.335L6.351 28.853H29.565C31.5603 28.853 32.8257 28.6097 33.361 28.123C33.8963 27.6363 34.2613 26.7847 34.456 25.568H35.989C35.989 28.488 36.0133 30.7753 36.062 32.43C36.1107 34.036 36.1837 35.4717 36.281 36.737C35.9403 36.6397 35.3077 36.591 34.383 36.591C33.4583 36.5423 32.3633 36.4937 31.098 36.445C29.8327 36.3963 28.543 36.372 27.229 36.372C25.9637 36.372 24.7713 36.372 23.652 36.372H0.584V34.839L27.813 0.236999ZM28.981 0.236999V49.293H20.513V10.53L27.813 0.236999H28.981Z" fill="#B18373"/>
</svg>
