<svg width="40" height="40" viewBox="0 0 40 40" fill="none" xmlns="http://www.w3.org/2000/svg">
<path d="M18.65 26.65C19.0167 27.0167 19.4753 27.192 20.026 27.176C20.5767 27.16 21.0347 26.968 21.4 26.6C21.7667 26.2333 21.95 25.7667 21.95 25.2C21.95 24.6333 21.7667 24.1667 21.4 23.8L19.6 22H26.05C26.6167 22 27.0833 21.8087 27.45 21.426C27.8167 21.0433 28 20.568 28 20C28 19.4333 27.808 18.9587 27.424 18.576C27.04 18.1933 26.5653 18.0013 26 18H19.6L21.45 16.15C21.8167 15.7833 21.992 15.3247 21.976 14.774C21.96 14.2233 21.768 13.7653 21.4 13.4C21.0333 13.0333 20.5667 12.85 20 12.85C19.4333 12.85 18.9667 13.0333 18.6 13.4L13.4 18.6C13.0333 18.9667 12.85 19.4333 12.85 20C12.85 20.5667 13.0333 21.0333 13.4 21.4L18.65 26.65ZM20 40C17.2333 40 14.6333 39.4747 12.2 38.424C9.76667 37.3733 7.65 35.9487 5.85 34.15C4.05 32.35 2.62533 30.2333 1.576 27.8C0.526667 25.3667 0.00133333 22.7667 0 20C0 17.2333 0.525334 14.6333 1.576 12.2C2.62667 9.76667 4.05133 7.65 5.85 5.85C7.65 4.05 9.76667 2.62533 12.2 1.576C14.6333 0.526667 17.2333 0.00133333 20 0C22.7667 0 25.3667 0.525334 27.8 1.576C30.2333 2.62667 32.35 4.05133 34.15 5.85C35.95 7.65 37.3753 9.76667 38.426 12.2C39.4767 14.6333 40.0013 17.2333 40 20C40 22.7667 39.4747 25.3667 38.424 27.8C37.3733 30.2333 35.9487 32.35 34.15 34.15C32.35 35.95 30.2333 37.3753 27.8 38.426C25.3667 39.4767 22.7667 40.0013 20 40Z" fill="#B18373"/>
</svg>
