<svg width="42" height="42" viewBox="0 0 42 42" fill="none" xmlns="http://www.w3.org/2000/svg">
<g clip-path="url(#clip0_21_3316)">
<path d="M40.7695 19.7695C40.7695 19.7695 37.0986 19.774 36.9141 19.7804V16.0781C36.9141 15.3985 36.3632 14.8477 35.6836 14.8477H24.6094V3.77344C24.6094 3.0938 24.0585 2.54297 23.3789 2.54297H13.5352C12.8555 2.54297 12.3047 3.0938 12.3047 3.77344V14.8477H1.23047C0.550827 14.8477 0 15.3985 0 16.0781V25.9219C0 26.6015 0.550827 27.1523 1.23047 27.1523H12.3047V38.2266C12.3047 38.9062 12.8555 39.457 13.5352 39.457H26.5124C31.319 39.457 35.6772 37.52 38.4695 34.1429C40.7791 31.3491 42 27.9457 42 24.3005V21C42 20.3204 41.4492 19.7695 40.7695 19.7695ZM13.5352 24.6914H2.46094V17.3086H13.5352C14.2148 17.3086 14.7656 16.7578 14.7656 16.0781V5.00391H22.1484V16.0781C22.1484 16.7578 22.6993 17.3086 23.3789 17.3086H34.4531V20.0627C32.3911 20.469 30.4461 21.2903 28.7241 22.4727C26.3109 20.7238 23.3802 19.7695 20.3694 19.7695H18.2991C17.6194 19.7695 17.0686 20.3204 17.0686 21V23.0703C17.0686 27.2558 18.879 31.1776 22.0504 33.8962C21.9623 34.9206 21.9767 35.9585 22.0962 36.9961H14.7656V25.9219C14.7656 25.2422 14.2148 24.6914 13.5352 24.6914ZM25.4364 25.5149C25.3528 25.6187 25.2708 25.7232 25.19 25.8286L24.4129 25.0519C23.9326 24.5712 23.1536 24.5712 22.673 25.0519C22.1923 25.5325 22.1923 26.3115 22.673 26.7919L23.824 27.9432C23.301 28.917 22.887 29.9385 22.5862 30.9908C20.6267 28.834 19.5295 26.0321 19.5295 23.0703V22.2305H20.3694C22.6393 22.2305 24.8535 22.8854 26.7377 24.0954C26.2788 24.5386 25.8437 25.0112 25.4364 25.5149ZM39.5391 24.3005C39.5391 27.3664 38.5134 30.2276 36.5728 32.5747C34.25 35.3843 30.5836 36.9958 26.5137 36.9961L31.7958 31.7137C32.2764 31.2334 32.2764 30.4544 31.7958 29.9738C31.3154 29.4931 30.5361 29.4931 30.0558 29.9738L24.4594 35.5698C24.3774 32.5039 25.3807 29.4982 27.3504 27.062C29.8325 23.9916 33.5207 22.2305 37.4691 22.2305H39.5391V24.3005Z" fill="#B18373"/>
</g>
<defs>
<clipPath id="clip0_21_3316">
<rect width="42" height="42" fill="white"/>
</clipPath>
</defs>
</svg>
