<svg width="42" height="42" viewBox="0 0 42 42" fill="none" xmlns="http://www.w3.org/2000/svg">
<g clip-path="url(#clip0_21_3252)">
<path d="M19.9186 16.669C19.7889 18.175 19.8792 19.7099 20.2022 21.2307C20.3064 21.7889 20.7989 22.2282 21.4061 22.2308H21.4109H21.4112H24.3804C29.1869 22.2308 33.5454 20.2937 36.3377 16.9167C38.6474 14.1228 39.8682 10.7192 39.8682 7.07391V3.77344C39.8682 3.0938 39.3174 2.54297 38.6378 2.54297H35.3373C32.1653 2.54297 29.135 3.50011 26.592 5.24615C24.1788 3.49722 21.2481 2.54297 18.2373 2.54297H16.167C15.4874 2.54297 14.9365 3.0938 14.9365 3.77344V5.84376C14.9365 10.045 16.7441 13.9514 19.9186 16.669ZM37.4073 5.0039V7.07391C37.4073 10.1398 36.3816 13.0013 34.4407 15.3485C32.1179 18.1581 28.4515 19.7695 24.3816 19.7698L29.664 14.4875C30.1447 14.0068 30.1447 13.2279 29.664 12.7472C29.1834 12.2669 28.4044 12.2669 27.9237 12.7472L22.3277 18.3436C22.2453 15.2773 23.2489 12.272 25.2183 9.83573C27.7007 6.76501 31.3889 5.0039 35.3373 5.0039H37.4073ZM17.3975 5.0039H18.2373C20.5073 5.0039 22.7212 5.65887 24.6056 6.86915C24.1468 7.31199 23.7116 7.78495 23.3043 8.28868C23.2207 8.39218 23.1387 8.49696 23.0579 8.60238L22.2809 7.82533C21.8005 7.345 21.0216 7.345 20.5409 7.82533C20.0603 8.30598 20.0603 9.08496 20.5409 9.56561L21.6919 10.7166C21.1683 11.6914 20.7543 12.7139 20.4531 13.7671C18.4917 11.6129 17.3975 8.81739 17.3975 5.84408V5.0039Z" fill="#B18373"/>
<path d="M41.9804 23.6849C41.8795 22.6925 41.4027 21.7937 40.6375 21.1538C39.1052 19.873 36.8266 20.0028 35.4535 21.4457L29.8552 27.2798C29.3851 25.7818 27.9838 24.6917 26.3323 24.6917H19.4138C18.9771 24.4215 16.4879 21.3172 11.9419 21.7722C9.74248 21.9923 7.76316 23.0225 6.30486 24.6917H1.23047C0.550827 24.6917 0 25.2428 0 25.9221V38.2271C0 38.9068 0.550827 39.4576 1.23047 39.4576H29.9584C30.3278 39.4576 30.6777 39.2916 30.9113 39.0052C30.9113 39.0052 41.1694 26.438 41.1726 26.4342C41.7939 25.6539 42.081 24.6776 41.9804 23.6849ZM39.2513 24.8961L29.3742 36.9967H2.46094V27.1526H6.88806C7.26937 27.1526 7.63691 26.9706 7.86794 26.6665C8.93499 25.2614 10.4689 24.393 12.1871 24.221C15.6471 23.8746 17.4425 26.3903 18.1366 26.846C18.3612 27.0437 18.6502 27.1526 18.9495 27.1526H26.3323C27.0107 27.1526 27.5628 27.7047 27.5628 28.3831C27.5628 28.9682 27.1523 29.4578 26.6044 29.5825C25.6754 29.6385 22.3823 29.6014 18.9495 29.6135C18.2699 29.6135 17.7191 30.1647 17.7191 30.844C17.7191 31.5237 18.2699 32.0745 18.9495 32.0745C26.6524 32.0681 26.3669 32.0908 26.7133 32.0549C27.8586 32.1732 28.9923 31.7537 29.7856 30.9068L37.2325 23.1459C37.717 22.6364 38.5194 22.5909 39.059 23.0418C39.6195 23.5102 39.7031 24.3235 39.2513 24.8961Z" fill="#B18373"/>
</g>
<defs>
<clipPath id="clip0_21_3252">
<rect width="42" height="42" fill="white"/>
</clipPath>
</defs>
</svg>
