<svg width="42" height="42" viewBox="0 0 42 42" fill="none" xmlns="http://www.w3.org/2000/svg">
<g clip-path="url(#clip0_21_3338)">
<path d="M34.7046 11.0422C35.0161 10.1537 35.1824 9.20389 35.1824 8.22336C35.1824 4.99659 33.3896 2.0957 30.5034 0.652783C29.0336 -0.0822936 27.3657 -0.200854 25.8068 0.31889C25.7956 0.322735 16.1409 3.85584 16.1409 3.85584C11.8737 5.41764 8.46426 8.7351 6.78646 12.9581C5.13622 17.1122 5.30734 21.7787 7.24757 25.7985C7.73366 33.5104 13.5316 42 20.7478 42C24.2463 42 27.6406 40.0153 30.3054 36.4117C32.6039 33.3031 34.0689 29.2865 34.2599 25.5999C36.9707 21.1436 37.139 15.6703 34.7046 11.0422ZM32.4366 23.841L23.4231 19.3344L30.5034 15.7943C31.5573 15.2672 32.4648 14.5452 33.1928 13.6845C34.4223 17.0167 34.1615 20.6988 32.4366 23.841ZM9.0734 13.8665C10.4926 10.2943 13.3768 7.48765 16.9865 6.1665L26.6008 2.64813C27.5314 2.34243 28.526 2.41517 29.403 2.85353C31.4811 3.89269 32.7218 5.90022 32.7218 8.22336C32.7218 9.05553 32.5619 9.847 32.262 10.568C32.235 10.6199 32.2116 10.6737 32.1924 10.7288C31.6416 11.9487 30.6809 12.9543 29.403 13.5935L9.0452 23.7721C7.80736 20.6021 7.8064 17.0555 9.0734 13.8665ZM28.3267 34.9485C26.1378 37.909 23.4462 39.5394 20.7478 39.5394C18.0786 39.5394 15.4087 37.9385 13.2307 35.0315C11.3251 32.4883 10.0526 29.2307 9.74695 26.1725L20.6722 20.71L31.7416 26.2446C31.4275 29.2464 30.1887 32.4306 28.3267 34.9485Z" fill="#B18373"/>
<path d="M19.7617 27.7445C19.7617 25.7094 18.106 24.0537 16.071 24.0537C14.0356 24.0537 12.3799 25.7094 12.3799 27.7445C12.3799 29.7799 14.0356 31.4356 16.071 31.4356C18.106 31.4356 19.7617 29.7799 19.7617 27.7445ZM16.071 28.9749C15.3926 28.9749 14.8405 28.4232 14.8405 27.7445C14.8405 27.0661 15.3926 26.5143 16.071 26.5143C16.7493 26.5143 17.3011 27.0661 17.3011 27.7445C17.3011 28.4232 16.7493 28.9749 16.071 28.9749Z" fill="#B18373"/>
<path d="M25.9134 24.0537C23.8783 24.0537 22.2227 25.7094 22.2227 27.7445C22.2227 29.7799 23.8783 31.4356 25.9134 31.4356C27.9488 31.4356 29.6045 29.7799 29.6045 27.7445C29.6045 25.7094 27.9488 24.0537 25.9134 24.0537ZM25.9134 28.9749C25.2351 28.9749 24.6833 28.4232 24.6833 27.7445C24.6833 27.0661 25.2351 26.5143 25.9134 26.5143C26.5918 26.5143 27.1439 27.0661 27.1439 27.7445C27.1439 28.4232 26.5918 28.9749 25.9134 28.9749Z" fill="#B18373"/>
<path d="M22.5832 34.2567C21.7062 35.1338 20.279 35.1338 19.402 34.2567C18.9216 33.7761 18.1427 33.7761 17.662 34.2567C17.1817 34.7371 17.1817 35.516 17.662 35.9967C18.5515 36.8862 19.7346 37.3762 20.9926 37.3762C22.2506 37.3762 23.4337 36.8862 24.3232 35.9967C24.8035 35.516 24.8035 34.7371 24.3232 34.2567C23.8429 33.7761 23.0639 33.7761 22.5832 34.2567Z" fill="#B18373"/>
</g>
<defs>
<clipPath id="clip0_21_3338">
<rect width="42" height="42" fill="white"/>
</clipPath>
</defs>
</svg>
