<svg width="42" height="42" viewBox="0 0 42 42" fill="none" xmlns="http://www.w3.org/2000/svg">
<g clip-path="url(#clip0_21_3347)">
<path d="M40.7718 30.8681H38.3156C36.4501 30.8681 34.7771 31.7057 33.6501 33.0233C33.2326 32.229 32.6949 31.5077 32.0608 30.8838C32.3975 30.0692 32.6603 29.2339 32.8484 28.3863C33.0323 28.403 33.2175 28.412 33.4034 28.412C36.7894 28.412 39.5439 25.6575 39.5439 22.2718C39.5439 18.8861 36.7894 16.1313 33.4034 16.1313C32.4933 16.1313 31.5984 16.3361 30.7841 16.7196C30.365 15.8788 29.8559 14.8867 29.5896 14.3542C29.3816 13.9379 28.9564 13.6752 28.4911 13.6752H8.84207C8.3768 13.6752 7.9519 13.9379 7.74362 14.3542C6.99733 15.8468 5.40733 18.8685 4.90938 20.362C2.17767 28.5571 7.32866 34.3512 7.82021 35.2337C8.04803 35.5753 8.43159 35.7807 8.84207 35.7807H23.1815C23.6199 36.701 24.2172 37.5315 24.9378 38.2368H1.22823C0.549866 38.2368 0 38.7867 0 39.4647C0 40.1431 0.549866 40.6929 1.22823 40.6929H35.8595C39.2455 40.6929 42 37.9385 42 34.5524V32.0963C42 31.418 41.4501 30.8681 40.7718 30.8681ZM32.1755 37.0086V38.2368H30.9473C27.5615 38.2368 24.8071 35.482 24.8071 32.0963V30.8681H26.035C29.421 30.8681 32.1755 33.6229 32.1755 37.0086ZM33.4034 18.5874C35.4349 18.5874 37.0877 20.2402 37.0877 22.2718C37.0877 24.3033 35.4349 25.9558 33.4034 25.9558C33.3294 25.9558 33.256 25.9529 33.1826 25.9488C33.2832 24.0787 33.033 22.1885 32.4241 20.362C32.2937 19.9711 32.0893 19.4766 31.8441 18.9316C32.3264 18.705 32.8535 18.5874 33.4034 18.5874ZM9.49928 33.3245C9.29068 32.8205 4.9379 28.0435 7.23926 21.1391C7.59174 20.0816 8.73184 17.8367 9.48615 16.3511C9.52428 16.2761 9.56145 16.2028 9.59766 16.1313H27.7355C27.7717 16.2028 27.8089 16.2761 27.847 16.3511C28.6013 17.8367 29.7415 20.0816 30.0939 21.1387C30.9905 23.8288 30.9665 26.7121 30.0065 29.3864C28.818 28.7644 27.467 28.412 26.035 28.412H23.5789C22.9005 28.412 22.3506 28.9618 22.3506 29.6402C22.3705 31.7858 22.2974 32.3398 22.4388 33.3245H9.49928ZM39.5439 34.5524C39.5439 36.584 37.8911 38.2368 35.8595 38.2368H34.6316V37.0086C34.6316 34.977 36.2844 33.3245 38.3156 33.3245H39.5439V34.5524Z" fill="#B18373"/>
<path d="M13.0179 7.28919C13.2868 7.49106 13.4476 7.81246 13.4476 8.14892C13.4476 8.48537 13.2868 8.80677 13.0179 9.00864C12.4751 9.41559 12.3652 10.1853 12.7722 10.7278C13.0135 11.0495 13.3823 11.2193 13.7556 11.2193C14.0119 11.2193 14.2705 11.1392 14.4916 10.9735C15.376 10.3102 15.9038 9.25441 15.9038 8.14892C15.9038 7.04342 15.376 5.98758 14.4916 5.32428C14.2225 5.12241 14.0616 4.80102 14.0616 4.46456C14.0616 4.12842 14.2225 3.80671 14.4916 3.60515C15.0341 3.1982 15.144 2.4282 14.7371 1.8857C14.3301 1.34321 13.5604 1.2333 13.0179 1.64025C12.1335 2.30323 11.6055 3.35938 11.6055 4.46456C11.6055 5.57006 12.1335 6.62589 13.0179 7.28919Z" fill="#B18373"/>
<path d="M17.9301 7.28919C18.1992 7.49106 18.3598 7.81246 18.3598 8.14892C18.3598 8.48537 18.1992 8.80677 17.9301 9.00864C17.3876 9.41559 17.2773 10.1853 17.6843 10.7278C17.9256 11.0495 18.2944 11.2193 18.6677 11.2193C18.9244 11.2193 19.1826 11.1392 19.4037 10.9735C20.2881 10.3102 20.8159 9.25441 20.8159 8.14892C20.8159 7.04342 20.2881 5.98758 19.4037 5.32428C19.1346 5.12241 18.9737 4.80102 18.9737 4.46456C18.9737 4.12842 19.1346 3.80671 19.4037 3.60515C19.9462 3.1982 20.0561 2.4282 19.6492 1.8857C19.2422 1.34321 18.4725 1.2333 17.9301 1.64025C17.0457 2.30323 16.5176 3.35938 16.5176 4.46456C16.5176 5.57006 17.0457 6.62589 17.9301 7.28919Z" fill="#B18373"/>
<path d="M22.8422 7.28919C23.1113 7.49106 23.2719 7.81246 23.2719 8.14892C23.2719 8.48537 23.1113 8.80677 22.8422 9.00864C22.2997 9.41559 22.1894 10.1853 22.5964 10.7278C22.8377 11.0495 23.2065 11.2193 23.5798 11.2193C23.8365 11.2193 24.0947 11.1392 24.3158 10.9735C25.2002 10.3102 25.728 9.25441 25.728 8.14892C25.728 7.04342 25.2002 5.98758 24.3158 5.32428C24.0467 5.12241 23.8858 4.80102 23.8858 4.46456C23.8858 4.12842 24.0467 3.80671 24.3158 3.60515C24.8583 3.1982 24.9682 2.4282 24.5613 1.8857C24.1543 1.34321 23.3847 1.2333 22.8422 1.64025C21.9578 2.30323 21.4297 3.35938 21.4297 4.46456C21.4297 5.57006 21.9578 6.62589 22.8422 7.28919Z" fill="#B18373"/>
</g>
<defs>
<clipPath id="clip0_21_3347">
<rect width="42" height="42" fill="white"/>
</clipPath>
</defs>
</svg>
