<svg width="42" height="42" viewBox="0 0 42 42" fill="none" xmlns="http://www.w3.org/2000/svg">
<g clip-path="url(#clip0_21_3279)">
<path d="M40.6366 23.6965C39.1046 22.4157 36.8259 22.5455 35.4529 23.9884L29.8046 29.8748C29.3508 28.3498 27.9368 27.2344 26.2663 27.2344H19.3478C18.9124 26.9649 16.4213 23.8599 11.8759 24.3149C9.6768 24.5351 7.69748 25.5653 6.23918 27.2344H1.23047C0.550827 27.2344 0 27.7852 0 28.4649V40.7696C0 41.4492 0.550827 42 1.23047 42H29.9577C30.3272 42 30.6774 41.834 30.911 41.5476C30.911 41.5476 41.1688 28.9804 41.172 28.9766C42.4573 27.3626 42.2205 25.0202 40.6366 23.6965ZM39.2507 27.4388L29.3739 39.5391H2.46094V29.6953H6.82237C7.2133 29.6953 7.58052 29.5008 7.80226 29.2092C8.86931 27.8041 10.4032 26.9354 12.1211 26.7637C15.5821 26.417 17.374 28.9314 18.0706 29.3887C18.2952 29.5864 18.5842 29.6953 18.8835 29.6953H26.2663C26.945 29.6953 27.4968 30.2474 27.4968 30.9258C27.4968 31.6042 26.945 32.1563 26.2663 32.1563H18.8835C18.2039 32.1563 17.6531 32.7071 17.6531 33.3867C17.6531 34.0664 18.2039 34.6172 18.8835 34.6172C26.6118 34.6086 26.2792 34.6384 26.6794 34.5935C27.8368 34.7236 28.9846 34.3045 29.7857 33.4489L37.2316 25.6886C37.7164 25.1791 38.5188 25.1336 39.0584 25.5845C39.6185 26.053 39.7025 26.8662 39.2507 27.4388Z" fill="#B18373"/>
<path d="M13.6172 17.2266H19.7695V23.3789C19.7695 24.0585 20.3204 24.6094 21 24.6094H28.3828C29.0625 24.6094 29.6133 24.0585 29.6133 23.3789V17.2266H35.7656C36.4453 17.2266 36.9961 16.6757 36.9961 15.9961V8.61328C36.9961 7.93364 36.4453 7.38281 35.7656 7.38281H29.6133V1.23047C29.6133 0.550827 29.0625 0 28.3828 0H21C20.3204 0 19.7695 0.550827 19.7695 1.23047V7.38281H13.6172C12.9375 7.38281 12.3867 7.93364 12.3867 8.61328V15.9961C12.3867 16.6757 12.9375 17.2266 13.6172 17.2266ZM14.8477 9.84375H21C21.6796 9.84375 22.2305 9.29292 22.2305 8.61328V2.46094H27.1523V8.61328C27.1523 9.29292 27.7032 9.84375 28.3828 9.84375H34.5352V14.7656H28.3828C27.7032 14.7656 27.1523 15.3165 27.1523 15.9961V22.1484H22.2305V15.9961C22.2305 15.3165 21.6796 14.7656 21 14.7656H14.8477V9.84375Z" fill="#B18373"/>
</g>
<defs>
<clipPath id="clip0_21_3279">
<rect width="42" height="42" fill="white"/>
</clipPath>
</defs>
</svg>
