<svg width="42" height="42" viewBox="0 0 42 42" fill="none" xmlns="http://www.w3.org/2000/svg">
<g clip-path="url(#clip0_21_3313)">
<path d="M41.0306 27.7778C41.029 27.7653 41.0268 27.7528 41.0245 27.74C40.1513 22.4922 38.5748 20.6116 35.9988 15.1876C33.8122 10.8143 32.6465 6.44649 34.9795 1.78097C35.3878 0.964506 34.7934 0 33.8788 0H14.2093C13.2964 0 12.6998 0.962904 13.1086 1.78065C13.5989 2.76086 13.9645 3.90192 14.176 5.08593H1.88672C1.20708 5.08593 0.65625 5.63675 0.65625 6.31639V13.6992C0.65625 14.3788 1.20708 14.9297 1.88672 14.9297H12.2156C12.1736 15.0159 12.1323 15.1024 12.0893 15.1876C9.52458 20.5892 7.93555 22.489 7.06237 27.7486C7.06012 27.7611 7.05788 27.7733 7.05596 27.7858C6.32024 32.2549 6.67881 36.8345 8.12012 41.1585C8.28771 41.6609 8.75778 41.9999 9.28746 41.9999H21.5921C22.2714 41.9999 22.8226 41.4491 22.8226 40.7694V34.5832C23.6455 34.629 24.4421 34.6287 25.2656 34.5822V40.7694C25.2656 41.4491 25.8164 41.9999 26.496 41.9999H38.8007C39.3304 41.9999 39.8005 41.6609 39.968 41.1585C41.4103 36.832 41.7682 32.2494 41.0306 27.7778ZM3.11718 7.54686H25.2656V12.4687H22.8046V11.2383C22.8046 10.5586 22.2538 10.0078 21.5742 10.0078C20.8945 10.0078 20.3437 10.5586 20.3437 11.2383V12.4687H17.8828V11.2383C17.8828 10.5586 17.332 10.0078 16.6523 10.0078C15.9727 10.0078 15.4218 10.5586 15.4218 11.2383V12.4687H12.9609V11.2383C12.9609 10.5586 12.4101 10.0078 11.7304 10.0078C11.0508 10.0078 10.5 10.5586 10.5 11.2383V12.4687H8.03905V11.2383C8.03905 10.5586 7.48822 10.0078 6.80858 10.0078C6.12894 10.0078 5.57812 10.5586 5.57812 11.2383V12.4687H3.11718V7.54686ZM14.9303 14.9297H26.496C27.1757 14.9297 27.7265 14.3788 27.7265 13.6992V6.31639C27.7265 5.63675 27.1757 5.08593 26.496 5.08593H16.6683C16.5325 4.18743 16.3219 3.30015 16.0422 2.46093H32.0331C30.3473 7.39017 31.483 11.659 33.7978 16.2883L36.1655 21.024L32.8089 22.7021C30.099 24.0572 27.0651 24.7734 24.0351 24.7734C21.0054 24.7734 17.9712 24.0572 15.2613 22.7021L11.9192 21.031C14.2292 16.388 14.3945 16.1338 14.9303 14.9297ZM20.3617 39.539H10.1901C9.25734 36.3821 8.94748 33.0931 9.26663 29.8391L14.1606 32.286C16.1108 33.261 18.2099 33.9416 20.3617 34.3063V39.539ZM15.2613 30.0849L9.64987 27.2792C9.93313 25.8763 10.2962 24.6177 10.8637 23.2549L14.1606 24.9035C17.2105 26.4284 20.6251 27.2343 24.0351 27.2343C27.4452 27.2343 30.8597 26.4284 33.9096 24.9035L37.2213 23.2475C37.7878 24.6064 38.1522 25.8645 38.4364 27.2712L32.8089 30.0849C27.3083 32.8352 20.7981 32.8531 15.2613 30.0849ZM37.8977 39.539H27.7265V34.3031C29.8718 33.9378 31.9649 33.2585 33.9096 32.286L38.8206 29.8305C39.141 33.0874 38.8318 36.3792 37.8977 39.539Z" fill="#B18373"/>
<path d="M25.2656 21.082C25.2656 21.7617 24.7148 22.3125 24.0352 22.3125C23.3555 22.3125 22.8047 21.7617 22.8047 21.082C22.8047 20.4024 23.3555 19.8516 24.0352 19.8516C24.7148 19.8516 25.2656 20.4024 25.2656 21.082Z" fill="#B18373"/>
</g>
<defs>
<clipPath id="clip0_21_3313">
<rect width="42" height="42" fill="white"/>
</clipPath>
</defs>
</svg>
