<svg width="20" height="20" viewBox="0 0 20 20" fill="none" xmlns="http://www.w3.org/2000/svg">
<path d="M1.66699 5.00002C1.66699 4.53978 2.04009 4.16669 2.50033 4.16669H17.5003C17.9606 4.16669 18.3337 4.53978 18.3337 5.00002C18.3337 5.46026 17.9606 5.83336 17.5003 5.83336L2.50033 5.83335C2.04009 5.83335 1.66699 5.46026 1.66699 5.00002Z" fill="white"/>
<path d="M1.66699 10C1.66699 9.53978 2.04009 9.16669 2.50033 9.16669L17.5003 9.16669C17.9606 9.16669 18.3337 9.53978 18.3337 10C18.3337 10.4603 17.9606 10.8334 17.5003 10.8334L2.50033 10.8334C2.04009 10.8334 1.66699 10.4603 1.66699 10Z" fill="white"/>
<path d="M2.50033 14.1667C2.04009 14.1667 1.66699 14.5398 1.66699 15C1.66699 15.4603 2.04009 15.8334 2.50033 15.8334L17.5003 15.8334C17.9606 15.8334 18.3337 15.4603 18.3337 15C18.3337 14.5398 17.9606 14.1667 17.5003 14.1667L2.50033 14.1667Z" fill="white"/>
</svg>
