<svg width="42" height="42" viewBox="0 0 42 42" fill="none" xmlns="http://www.w3.org/2000/svg">
<g clip-path="url(#clip0_21_3385)">
<path d="M22.5089 22.673C21.6316 23.55 20.2044 23.55 19.327 22.673C18.8467 22.1923 18.0677 22.1923 17.5871 22.673C17.1064 23.1536 17.1064 23.9326 17.5871 24.4129C18.4766 25.3028 19.6596 25.7927 20.918 25.7927C22.1763 25.7927 23.3594 25.3028 24.2489 24.4129C24.7295 23.9326 24.7295 23.1536 24.2489 22.673C23.7686 22.1923 22.9893 22.1923 22.5089 22.673Z" fill="#B18373"/>
<path d="M40.6875 0H1.23047C0.550827 0 0 0.550827 0 1.23047V26.0039C0 26.6835 0.550827 27.2344 1.23047 27.2344H13.8453C13.8835 27.2344 13.9213 27.2321 13.9588 27.2286C14.2183 27.4388 14.4875 27.6381 14.7656 27.8246V29.6953H13.5352C8.78568 29.6953 4.92188 33.5591 4.92188 38.3086V40.7695C4.92188 41.4492 5.4727 42 6.15234 42H35.6836C36.3629 42 36.9141 41.4492 36.9141 40.7695V38.3086C36.9141 33.5591 33.0499 29.6953 28.3008 29.6953H27.0703V27.8246C27.3484 27.6381 27.6176 27.4388 27.8772 27.2286C27.9143 27.2321 27.9521 27.2344 27.9906 27.2344H40.6875C41.3671 27.2344 41.918 26.6835 41.918 26.0039V1.23047C41.918 0.550827 41.3671 0 40.6875 0ZM20.918 27.2344C16.4203 27.2344 12.7177 23.7692 12.3374 19.3683L21.0426 15.0569L29.5082 19.2498C29.1852 23.7067 25.456 27.2344 20.918 27.2344ZM25.8799 9.9277C25.7271 9.97897 26.6675 9.5294 11.3767 17.0981C10.384 15.7782 9.995 14.1321 10.3042 12.4662C10.6669 10.5125 11.9163 8.92923 13.7322 8.12238L23.4965 3.78241C24.7353 3.2319 26.2112 3.5062 27.1696 4.46461C28.9061 6.20073 28.2043 9.15289 25.8799 9.9277ZM30.7079 17.0977L23.815 13.6838L26.7435 12.2332C28.2261 11.7138 29.4018 10.6391 30.05 9.25127C30.9956 10.1494 31.6195 11.3437 31.8179 12.6863C32.0521 14.2741 31.6506 15.84 30.7079 17.0977ZM2.46094 2.46094H20.4107L12.7325 5.87357C10.2023 6.99797 8.38994 9.29453 7.88461 12.0169C7.41037 14.5718 8.14481 17.19 9.85561 19.1207C9.94853 21.2057 10.6205 23.1421 11.7144 24.7734H2.46094V2.46094ZM27.0703 39.5391H14.7656V38.3086C14.7656 37.6302 15.3177 37.0781 15.9961 37.0781H25.8398C26.5182 37.0781 27.0703 37.6302 27.0703 38.3086V39.5391ZM25.8398 32.1562H28.3008C31.6932 32.1562 34.4531 34.9162 34.4531 38.3086V39.5391H29.5312V38.3086C29.5312 36.2732 27.8752 34.6172 25.8398 34.6172H15.9961C13.9607 34.6172 12.3047 36.2732 12.3047 38.3086V39.5391H7.38281V38.3086C7.38281 34.9162 10.1427 32.1562 13.5352 32.1562H15.9961C16.6757 32.1562 17.2266 31.6054 17.2266 30.9258V29.0618C18.3817 29.4716 19.6241 29.6953 20.918 29.6953C22.2119 29.6953 23.4542 29.4716 24.6094 29.0618V30.9258C24.6094 31.6054 25.1602 32.1562 25.8398 32.1562ZM39.457 24.7734H30.1215C31.1655 23.2168 31.8249 21.382 31.964 19.4058C33.8046 17.5143 34.6383 14.9415 34.2522 12.3271C33.8978 9.92706 32.5795 7.86122 30.5945 6.55257C30.5377 5.12888 29.9523 3.76639 28.9099 2.72433C28.8183 2.63269 28.7234 2.54521 28.6267 2.46094H39.457V24.7734Z" fill="#B18373"/>
</g>
<defs>
<clipPath id="clip0_21_3385">
<rect width="42" height="42" fill="white"/>
</clipPath>
</defs>
</svg>
