<svg width="42" height="42" viewBox="0 0 42 42" fill="none" xmlns="http://www.w3.org/2000/svg">
<g clip-path="url(#clip0_21_3352)">
<path d="M32.7558 7.36839C32.3255 7.36839 31.9125 7.44337 31.5279 7.57956V6.14049C31.5279 4.10893 29.8751 2.45613 27.8436 2.45613C27.3642 2.45613 26.9063 2.54906 26.4859 2.71664C26.0597 1.15324 24.628 0 22.9313 0C21.2349 0 19.8032 1.15324 19.3771 2.71664C18.9567 2.54906 18.4988 2.45613 18.0191 2.45613C15.9878 2.45613 14.335 4.10893 14.335 6.14049V16.2105V16.2108V20.62L12.5172 16.8186C12.4922 16.7661 12.4634 16.7155 12.431 16.6671C11.7277 15.6122 10.551 14.9826 9.28338 14.9826C8.05259 14.9826 6.93395 15.5552 6.21425 16.5533C5.49456 17.5518 5.30518 18.7941 5.69419 19.9618L9.48557 31.3356C9.54581 31.5167 9.64771 31.681 9.78229 31.8156L14.335 36.3684V40.7718C14.335 41.4501 14.8849 42 15.5629 42H32.7558C33.4342 42 33.9841 41.4501 33.9841 40.7718V36.0588L36.3771 28.8795C36.4191 28.7545 36.4402 28.6231 36.4402 28.4911V11.0527C36.4402 9.02119 34.7874 7.36839 32.7558 7.36839ZM33.9841 28.2918L31.5911 35.4711C31.5491 35.5964 31.5279 35.7275 31.5279 35.8595V39.5439H16.7912V35.8595C16.7912 35.534 16.6617 35.2215 16.4313 34.9915L11.7241 30.284L8.02439 19.1851C7.88788 18.7755 7.95453 18.3398 8.20704 17.9895C8.45922 17.6393 8.85175 17.4387 9.28338 17.4387C9.70347 17.4387 10.095 17.6358 10.345 17.9697L14.4552 26.565C14.7026 27.0822 15.2749 27.3597 15.8347 27.2328C16.3941 27.1059 16.7912 26.6086 16.7912 26.0353V6.14049C16.7912 5.46309 17.342 4.91226 18.0191 4.91226C18.6965 4.91226 19.2473 5.46309 19.2473 6.14049V16.2105C19.2473 16.8888 19.7972 17.4387 20.4752 17.4387C21.1536 17.4387 21.7034 16.8888 21.7034 16.2105V3.68436C21.7034 3.00696 22.2542 2.45613 22.9313 2.45613C23.6087 2.45613 24.1596 3.00696 24.1596 3.68436V16.2105C24.1596 16.8888 24.7094 17.4387 25.3875 17.4387C26.0658 17.4387 26.6157 16.8888 26.6157 16.2105V6.14049C26.6157 5.46309 27.1665 4.91226 27.8436 4.91226C28.521 4.91226 29.0718 5.46309 29.0718 6.14049V16.2105C29.0718 16.8888 29.6217 17.4387 30.2997 17.4387C30.9781 17.4387 31.5279 16.8888 31.5279 16.2105V11.0527C31.5279 10.3754 32.0788 9.82452 32.7558 9.82452C33.4332 9.82452 33.9841 10.3754 33.9841 11.0527V28.2918Z" fill="#B18373"/>
<path d="M26.6153 35.8595C26.6153 36.5379 26.0654 37.0877 25.3871 37.0877C24.709 37.0877 24.1592 36.5379 24.1592 35.8595C24.1592 35.1815 24.709 34.6316 25.3871 34.6316C26.0654 34.6316 26.6153 35.1815 26.6153 35.8595Z" fill="#B18373"/>
<path d="M29.0714 30.9473C29.0714 31.6256 28.5215 32.1755 27.8431 32.1755C27.1651 32.1755 26.6152 31.6256 26.6152 30.9473C26.6152 30.2692 27.1651 29.7194 27.8431 29.7194C28.5215 29.7194 29.0714 30.2692 29.0714 30.9473Z" fill="#B18373"/>
<path d="M21.7032 33.4034C21.7032 34.0818 21.1533 34.6317 20.475 34.6317C19.7969 34.6317 19.2471 34.0818 19.2471 33.4034C19.2471 32.7254 19.7969 32.1755 20.475 32.1755C21.1533 32.1755 21.7032 32.7254 21.7032 33.4034Z" fill="#B18373"/>
<path d="M24.1593 28.4911C24.1593 29.1694 23.6094 29.7193 22.931 29.7193C22.253 29.7193 21.7031 29.1694 21.7031 28.4911C21.7031 27.813 22.253 27.2632 22.931 27.2632C23.6094 27.2632 24.1593 27.813 24.1593 28.4911Z" fill="#B18373"/>
<path d="M26.6153 21.1227C26.6153 21.801 26.0654 22.3509 25.3871 22.3509C24.709 22.3509 24.1592 21.801 24.1592 21.1227C24.1592 20.4446 24.709 19.8948 25.3871 19.8948C26.0654 19.8948 26.6153 20.4446 26.6153 21.1227Z" fill="#B18373"/>
<path d="M21.7032 23.5789C21.7032 24.2572 21.1533 24.8071 20.475 24.8071C19.7969 24.8071 19.2471 24.2572 19.2471 23.5789C19.2471 22.9008 19.7969 22.351 20.475 22.351C21.1533 22.351 21.7032 22.9008 21.7032 23.5789Z" fill="#B18373"/>
<path d="M31.5274 26.035C31.5274 26.7134 30.9776 27.2633 30.2992 27.2633C29.6212 27.2633 29.0713 26.7134 29.0713 26.035C29.0713 25.357 29.6212 24.8071 30.2992 24.8071C30.9776 24.8071 31.5274 25.357 31.5274 26.035Z" fill="#B18373"/>
<path d="M31.5274 21.1227C31.5274 21.801 30.9776 22.3509 30.2992 22.3509C29.6212 22.3509 29.0713 21.801 29.0713 21.1227C29.0713 20.4446 29.6212 19.8948 30.2992 19.8948C30.9776 19.8948 31.5274 20.4446 31.5274 21.1227Z" fill="#B18373"/>
</g>
<defs>
<clipPath id="clip0_21_3352">
<rect width="42" height="42" fill="white"/>
</clipPath>
</defs>
</svg>
