<svg width="42" height="42" viewBox="0 0 42 42" fill="none" xmlns="http://www.w3.org/2000/svg">
<g clip-path="url(#clip0_21_3282)">
<path d="M40.7583 0.0820312H1.23074C0.392486 0.0820312 -0.2016 0.904908 0.0640407 1.70119C3.26166 11.2944 3.92304 21.5118 1.9764 31.2488L0.0268703 40.5882C-0.0490728 40.9506 0.0428921 41.3281 0.276169 41.6152C0.510086 41.9026 0.860642 42.0696 1.23074 42.0696H40.7583C41.1287 42.0696 41.4793 41.9026 41.7129 41.6152C41.9465 41.3278 42.0381 40.9506 41.9625 40.5882L40.0127 31.2488C38.0795 21.5787 38.7408 11.4181 41.9253 1.86525C42.1971 1.04974 41.7087 0.0820312 40.7583 0.0820312ZM10.0536 38.3487C9.96868 38.1785 9.92382 37.9885 9.92382 37.7985V30.9985C9.92382 30.3202 10.4756 29.7684 11.1537 29.7684H12.3838V33.5204C12.3838 34.1997 12.9346 34.7505 13.6139 34.7505C14.2933 34.7505 14.8441 34.1997 14.8441 33.5204V16.2374C14.8441 15.559 15.3959 15.0072 16.0742 15.0072C16.7526 15.0072 17.3044 15.559 17.3044 16.2374V28.5382C17.3044 29.2179 17.8552 29.7684 18.5345 29.7684C19.2139 29.7684 19.7647 29.2179 19.7647 28.5382V13.7771C19.7647 13.0987 20.3165 12.5469 20.9945 12.5469C21.6729 12.5469 22.2247 13.0987 22.2247 13.7771V28.5382C22.2247 29.2179 22.7755 29.7684 23.4548 29.7684C24.1341 29.7684 24.685 29.2179 24.685 28.5382V26.0783C24.685 25.3999 25.2368 24.8481 25.9151 24.8481C26.5935 24.8481 27.1453 25.3999 27.1453 26.0783V28.5382C27.1453 29.2179 27.6961 29.7684 28.3754 29.7684C29.0547 29.7684 29.6056 29.2179 29.6056 28.5382C29.6056 27.8602 30.1574 27.3084 30.8354 27.3084C31.5138 27.3084 32.0656 27.8602 32.0656 28.5382V37.7985C32.0656 37.9885 32.0207 38.1785 31.9358 38.3487L31.3055 39.6093H10.6839L10.0536 38.3487ZM37.6011 31.7362C37.6017 31.7397 39.2449 39.6093 39.2449 39.6093H34.0558L34.1362 39.4487C34.3909 38.9389 34.5255 38.3682 34.5255 37.7985V28.5386C34.5255 26.5035 32.8702 24.8481 30.8354 24.8481C30.3554 24.8481 29.8968 24.9404 29.4758 25.1077C29.0487 23.5423 27.6141 22.3878 25.9148 22.3878C25.4838 22.3878 25.0698 22.4622 24.685 22.5987V13.7771C24.685 11.7423 23.0293 10.087 20.9945 10.087C19.2956 10.087 17.861 11.2412 17.4335 12.8065C17.0128 12.6392 16.5539 12.5469 16.0739 12.5469C14.0392 12.5469 12.3838 14.2026 12.3838 16.2374V27.3084H11.1537C9.11889 27.3084 7.4632 28.9638 7.4632 30.9985V37.7985C7.4632 38.3685 7.5981 38.9392 7.85285 39.4491L7.93328 39.6096H2.74416C2.74416 39.6096 4.38735 31.7397 4.38799 31.7362C6.31028 22.1247 5.79758 12.0685 2.91271 2.54233H19.7644V6.39652C19.7644 7.07584 20.3152 7.62667 20.9945 7.62667C21.6738 7.62667 22.2247 7.07584 22.2247 6.39652V2.54233H39.1263C36.2107 12.0756 35.681 22.1353 37.6011 31.7362Z" fill="#B18373"/>
<path d="M32.7434 20.6324H32.7556C33.4295 20.6324 33.979 20.0893 33.9854 19.4141C34.0252 15.2968 34.4751 11.0065 35.4274 6.65984C35.5725 5.9959 35.1525 5.34029 34.4888 5.19482C33.8252 5.04966 33.1693 5.46975 33.0241 6.13337C32.0734 10.474 31.5687 14.9235 31.5255 19.3904C31.5187 20.0697 32.0641 20.6257 32.7434 20.6324Z" fill="#B18373"/>
<path d="M8.96525 6.13339C8.81978 5.46944 8.16385 5.04967 7.50055 5.19483C6.83661 5.34031 6.41652 5.99592 6.56199 6.65954C7.47812 10.8435 7.96229 15.1251 8.00363 19.4141C8.01004 20.0893 8.55958 20.6324 9.23346 20.6324H9.24532C9.92464 20.6257 10.4703 20.0697 10.4636 19.3904C10.4207 14.938 9.91919 10.4887 8.96525 6.13339Z" fill="#B18373"/>
</g>
<defs>
<clipPath id="clip0_21_3282">
<rect width="42" height="42" fill="white"/>
</clipPath>
</defs>
</svg>
