<svg width="42" height="42" viewBox="0 0 42 42" fill="none" xmlns="http://www.w3.org/2000/svg">
<g clip-path="url(#clip0_21_3311)">
<path d="M40.7695 6.23438H21.937C21.4287 4.80203 20.0611 3.77344 18.457 3.77344C17.9767 3.77344 17.5178 3.86668 17.0965 4.03427C16.6696 2.46799 15.2351 1.3125 13.5352 1.3125C12.5905 1.3125 11.7279 1.66978 11.0742 2.25554C10.4205 1.66978 9.55792 1.3125 8.61328 1.3125C6.91338 1.3125 5.47879 2.46799 5.05197 4.03427C4.6306 3.86668 4.17174 3.77344 3.69141 3.77344C1.65601 3.77344 0 5.42944 0 7.46484V19.7695C0 21.8049 1.65601 23.4609 3.69141 23.4609C4.12271 23.4609 4.53703 23.3866 4.92188 23.2501V27.1523C4.92188 28.7564 5.95047 30.1241 7.38281 30.6323V34.5352C7.38281 34.9466 7.58853 35.3308 7.93076 35.5589L15.3136 40.4808C15.7269 40.7564 16.2653 40.7564 16.6786 40.4808L23.3789 36.014L30.0792 40.4808C30.4926 40.7564 31.0309 40.7564 31.4442 40.4808L38.8271 35.5589C39.1693 35.3308 39.375 34.9466 39.375 34.5352V27.1523C39.375 26.7409 39.1693 26.3567 38.8271 26.1286L31.9922 21.572V14.8477C31.9922 14.4362 31.7865 14.052 31.4442 13.8239L31.1344 13.6172H40.7695C41.4492 13.6172 42 13.0664 42 12.3867V7.46484C42 6.7852 41.4492 6.23438 40.7695 6.23438ZM17.2266 7.46484C17.2266 6.78648 17.7787 6.23438 18.457 6.23438C19.1354 6.23438 19.6875 6.78648 19.6875 7.46484V12.3867C19.6875 13.0651 19.1354 13.6172 18.457 13.6172C17.7787 13.6172 17.2266 13.0651 17.2266 12.3867V7.46484ZM12.3047 5.00391C12.3047 4.32555 12.8568 3.77344 13.5352 3.77344C14.2135 3.77344 14.7656 4.32555 14.7656 5.00391V14.8477C14.7656 15.526 14.2135 16.0781 13.5352 16.0781C12.8568 16.0781 12.3047 15.526 12.3047 14.8477V5.00391ZM7.38281 5.00391C7.38281 4.32555 7.93492 3.77344 8.61328 3.77344C9.29164 3.77344 9.84375 4.32555 9.84375 5.00391V14.8477C9.84375 15.526 9.29164 16.0781 8.61328 16.0781C7.93492 16.0781 7.38281 15.526 7.38281 14.8477V5.00391ZM2.46094 7.46484C2.46094 6.78648 3.01305 6.23438 3.69141 6.23438C4.36977 6.23438 4.92188 6.78648 4.92188 7.46484V12.3867C4.92188 13.0651 4.36977 13.6172 3.69141 13.6172C3.01305 13.6172 2.46094 13.0651 2.46094 12.3867V7.46484ZM8.61328 28.3828C7.93492 28.3828 7.38281 27.8307 7.38281 27.1523V19.7695C7.38281 19.0899 6.83199 18.5391 6.15234 18.5391C5.4727 18.5391 4.92188 19.0899 4.92188 19.7695C4.92188 20.4479 4.36977 21 3.69141 21C3.01305 21 2.46094 20.4479 2.46094 19.7695V15.8666C2.8461 16.0031 3.2601 16.0781 3.69141 16.0781C4.17174 16.0781 4.6306 15.9849 5.05197 15.8173C5.47879 17.3836 6.91338 18.5391 8.61328 18.5391C9.55792 18.5391 10.4205 18.1818 11.0742 17.596C11.7279 18.1818 12.5905 18.5391 13.5352 18.5391C13.9665 18.5391 14.3805 18.4644 14.7656 18.3279V22.2305C14.7656 22.9088 14.2135 23.4609 13.5352 23.4609C12.8568 23.4609 12.3047 22.9088 12.3047 22.2305C12.3047 21.5508 11.7539 21 11.0742 21C10.3946 21 9.84375 21.5508 9.84375 22.2305V27.1523C9.84375 27.8307 9.29164 28.3828 8.61328 28.3828ZM22.1484 33.8767L15.9961 37.9782L9.84375 33.8767V30.6323C11.2761 30.1241 12.3047 28.7564 12.3047 27.1523V25.711C12.6895 25.8475 13.1039 25.9219 13.5352 25.9219C14.8621 25.9219 16.0275 25.2179 16.678 24.164L22.1484 27.8108V33.8767ZM36.9141 27.8108V33.8767L30.7617 37.9782L24.6094 33.8767V27.8108L30.7617 23.7093L36.9141 27.8108ZM29.5312 15.5061V21.572L23.3789 25.6735L17.2266 21.572V15.8657C17.6117 16.0025 18.0254 16.0781 18.457 16.0781C20.0611 16.0781 21.4287 15.0495 21.937 13.6172H26.698L29.5312 15.5061ZM39.5391 11.1562C37.5642 11.1562 24.388 11.1562 22.1484 11.1562V8.69531H39.5391V11.1562Z" fill="#B18373"/>
</g>
<defs>
<clipPath id="clip0_21_3311">
<rect width="42" height="42" fill="white"/>
</clipPath>
</defs>
</svg>
