<svg width="16" height="16" viewBox="0 0 16 16" fill="none" xmlns="http://www.w3.org/2000/svg">
<g clip-path="url(#clip0_69_1435)">
<rect width="16" height="16" fill="white"/>
<g clip-path="url(#clip1_69_1435)">
<path fill-rule="evenodd" clip-rule="evenodd" d="M72.3924 -28.5714H-19.0361V62.8572H72.3924V-28.5714ZM67.4639 1.28573H27.1067V15.8572H67.4639V1.28573ZM27.1067 17.2857H67.4639V31.8572H27.1067V17.2857ZM33.1067 21H35.1782V18.9286H28.9639V21H30.8924V30.2143H33.1067V21ZM58.9639 30.2143V18.9286H61.1067V28.1429H64.1782V30.2143H58.9639ZM22.9639 30.2143H24.8924V18.9286H22.821V26.2143L17.9282 18.9286H15.9639V30.2143H18.0353L18.071 22.7857L22.9639 30.2143ZM-4.06992 30.6072C-4.91735 30.6072 -5.69999 30.4509 -6.41792 30.1384C-7.13585 29.8147 -7.77135 29.3905 -8.32449 28.8659C-8.8777 28.3302 -9.31313 27.7051 -9.63092 26.9907C-9.9487 26.2652 -10.1076 25.4616 -10.1076 24.5798C-10.1076 23.7204 -9.9487 22.9279 -9.63092 22.2024C-9.30135 21.4657 -8.86592 20.8239 -8.32449 20.2769C-7.78313 19.7412 -7.15349 19.317 -6.43556 19.0045C-5.70585 18.692 -4.91735 18.5357 -4.06992 18.5357C-3.17549 18.5357 -2.31249 18.6808 -1.50042 19.0714C-0.688346 19.4509 0.0552252 19.9464 0.749582 20.75L-0.607561 22.25C-1.09013 21.6808 -1.94556 21.2592 -2.46342 21.0137C-2.98127 20.7569 -3.51678 20.6286 -4.06992 20.6286C-4.59956 20.6286 -5.09385 20.729 -5.55285 20.9299C-6.00006 21.1308 -6.40613 21.4099 -6.77099 21.7671C-7.12406 22.1131 -7.40063 22.5261 -7.6007 23.006C-7.80078 23.4748 -7.90085 23.9994 -7.90085 24.5798C-7.90085 25.1602 -7.80078 25.6848 -7.6007 26.1537C-7.40063 26.6112 -7.12406 27.0187 -6.77099 27.3758C-6.41792 27.733 -6.01185 28.0121 -5.55285 28.2129C-5.09385 28.4139 -4.59956 28.4643 -4.06992 28.4643C-3.51678 28.4643 -2.98127 28.3916 -2.46342 28.146C-1.94556 27.8893 -1.16156 27.4264 -0.678989 26.8572L0.713868 28.3214C0.0195109 29.1251 -0.698061 29.6472 -1.51013 30.0379C-2.3222 30.4174 -3.17549 30.6072 -4.06992 30.6072ZM44.6067 9.42859L47.9639 2.92859H45.821L43.571 7.00002L41.3567 2.92859H39.1782L42.4639 9.42859V14.2143H44.6067V9.42859ZM37.8567 8.57145C37.8792 9.42923 37.8381 9.93459 37.571 10.75C37.2754 11.6526 37.0231 12.1804 36.3567 12.8572C35.8057 13.4167 35.4118 13.6842 34.6782 13.9643C33.9521 14.2415 33.3097 14.23 32.6802 14.2187C32.5564 14.2165 32.4331 14.2143 32.3097 14.2143H28.9639V3.00002H32.3097C33.0709 3.00002 33.7397 3.0283 34.571 3.35716C35.4019 3.68588 35.8685 3.97645 36.4639 4.64288C36.9964 5.23895 37.189 5.67809 37.4639 6.42859C37.7564 7.22745 37.8345 7.72095 37.8567 8.57145ZM35.7496 8.57145C35.7343 7.79695 35.6749 7.31245 35.2853 6.64288C34.9381 6.04623 34.5533 5.71002 34.0353 5.39288C33.5279 5.07573 32.8482 5.00002 32.2139 5.00002H31.0353V12.1429H32.321C32.3668 12.1429 32.4137 12.1431 32.4616 12.1434C33.0887 12.1465 33.887 12.1505 34.5353 11.6429C35.0166 11.266 35.1853 10.9182 35.4282 10.3572C35.7097 9.70695 35.7635 9.27988 35.7496 8.57145ZM4.67815 2.78573V13.9572L8.74958 13.9286C9.1513 13.9286 9.79358 13.7617 10.1424 13.5714C10.5019 13.3706 10.6639 13.2457 10.9282 12.9286C11.203 12.6009 11.3516 12.366 11.4996 11.9643C11.6582 11.5626 11.7853 11.0909 11.7853 10.6786C11.7853 10.1712 11.731 9.7148 11.4639 9.17859C11.0764 8.40095 9.82101 7.67859 9.82101 7.67859C9.82101 7.67859 10.2811 7.28095 10.4996 6.9643C10.7193 6.64595 10.8386 6.44773 10.9282 6.07145C11.0644 5.49902 10.7853 4.57145 10.7853 4.57145C10.7853 4.57145 10.4607 3.78238 10.071 3.42859C9.53194 2.93916 8.90244 2.78573 8.32101 2.78573H6.7853H4.67815ZM7.89244 7.07145C7.67815 7.10716 6.82101 7.07145 6.82101 7.07145V4.64288C6.82101 4.64288 7.60673 4.60716 7.89244 4.64288C8.17815 4.67859 8.39858 4.82145 8.60673 5.07145C8.79073 5.29245 8.86194 5.46409 8.89244 5.75002C8.91173 5.93088 8.9103 6.04052 8.85673 6.2143C8.77458 6.48088 8.42815 6.78573 8.42815 6.78573C8.42815 6.78573 8.10673 7.03573 7.89244 7.07145ZM8.24958 11.8572H6.82101V9.00002H7.96387C8.46387 9.00002 8.95773 9.15423 9.32101 9.60716C9.5723 9.92045 9.69337 10.1702 9.67815 10.5714C9.66765 10.8492 9.60723 11.0119 9.46387 11.25C9.36723 11.4106 9.30194 11.5012 9.15458 11.617C8.86716 11.843 8.41873 11.8572 8.24958 11.8572ZM24.9639 8.29652C24.9639 9.1283 24.8099 9.91023 24.5022 10.6423C24.2057 11.3632 23.7896 11.9954 23.2537 12.5389C22.7179 13.0823 22.0966 13.5094 21.3897 13.8199C20.6829 14.1304 19.9247 14.2857 19.1153 14.2857C18.2944 14.2857 17.5306 14.1304 16.8237 13.8199C16.1169 13.4982 15.4955 13.0657 14.9597 12.5222C14.4239 11.9677 14.002 11.3299 13.6942 10.609C13.3978 9.87702 13.2496 9.10616 13.2496 8.29652C13.2496 7.4868 13.4035 6.72709 13.7113 6.01723C14.0192 5.2963 14.4467 4.66416 14.9939 4.12066C15.5412 3.56609 16.1682 3.13352 16.875 2.82302C17.5819 2.51245 18.3287 2.35716 19.1153 2.35716C19.9247 2.35716 20.6772 2.51245 21.3727 2.82302C22.0795 3.13352 22.7008 3.56609 23.2367 4.12066C23.7839 4.66416 24.2057 5.2963 24.5022 6.01723C24.8099 6.72709 24.9639 7.4868 24.9639 8.29652ZM22.8433 8.29652C22.8433 7.56445 22.6723 6.89902 22.3303 6.30009C21.9997 5.70116 21.5494 5.22423 20.9793 4.86931C20.4207 4.50331 19.7908 4.39288 19.1067 4.39288C18.4227 4.39288 17.8042 4.50331 17.2342 4.86931C16.6641 5.23531 16.2081 5.7233 15.8661 6.33338C15.5354 6.9323 15.3702 7.58666 15.3702 8.29652C15.3702 9.02852 15.5354 9.69952 15.8661 10.3095C16.2081 10.9196 16.6795 11.3483 17.2496 11.7143C17.8197 12.0803 18.4227 12.2143 19.1067 12.2143C19.8022 12.2143 20.4409 12.0803 20.9996 11.7143C21.5582 11.3483 21.9997 10.9196 22.3303 10.3095C22.6723 9.68845 22.8433 9.01745 22.8433 8.29652ZM56.5024 26.8566C56.8103 26.1245 56.9639 25.3426 56.9639 24.5108C56.9639 23.7011 56.8103 22.9414 56.5024 22.2315C56.206 21.5106 55.7839 20.8785 55.2367 20.335C54.701 19.7804 54.0796 19.3478 53.3724 19.0373C52.6774 18.7267 51.9247 18.5714 51.1153 18.5714C50.3287 18.5714 49.5819 18.7267 48.875 19.0373C48.1682 19.3478 47.5412 19.7804 46.9939 20.335C46.4467 20.8785 46.0192 21.5106 45.7113 22.2315C45.4035 22.9414 45.2496 23.7011 45.2496 24.5108C45.2496 25.3204 45.3978 26.0913 45.6942 26.8233C46.002 27.5442 46.4239 28.1819 46.9597 28.7365C47.4955 29.28 48.1169 29.7125 48.8237 30.0342C49.5306 30.3447 50.2944 30.5 51.1153 30.5C51.9247 30.5 52.6832 30.3447 53.3896 30.0342C54.0967 29.7237 54.7182 29.2966 55.2539 28.7532C55.7896 28.2097 56.206 27.5775 56.5024 26.8566ZM54.3303 22.5144C54.6724 23.1133 54.8432 23.7787 54.8432 24.5108C54.8432 25.2317 54.6724 25.9027 54.3303 26.5238C53.9996 27.1339 53.5582 27.5626 52.9996 27.9286C52.441 28.2946 51.8022 28.4286 51.1067 28.4286C50.4227 28.4286 49.8197 28.2946 49.2496 27.9286C48.6795 27.5626 48.2081 27.1339 47.8661 26.5238C47.5354 25.9138 47.3702 25.2428 47.3702 24.5108C47.3702 23.8009 47.5354 23.1466 47.8661 22.5477C48.2081 21.9376 48.6641 21.4496 49.2342 21.0836C49.8042 20.7176 50.4227 20.6072 51.1067 20.6072C51.7908 20.6072 52.421 20.7176 52.9796 21.0836C53.5496 21.4385 53.9996 21.9154 54.3303 22.5144ZM13.8924 24.5108C13.8924 25.3426 13.7385 26.1245 13.4307 26.8566C13.1343 27.5775 12.7182 28.2097 12.1823 28.7532C11.6465 29.2966 11.0252 29.7237 10.3183 30.0342C9.61144 30.3447 8.8533 30.5 8.04387 30.5C7.22301 30.5 6.45915 30.3447 5.7523 30.0342C5.04544 29.7125 4.42408 29.28 3.8883 28.7365C3.35244 28.1819 2.93058 27.5442 2.6228 26.8233C2.32637 26.0913 2.17815 25.3204 2.17815 24.5108C2.17815 23.7011 2.33208 22.9414 2.63987 22.2315C2.94772 21.5106 3.37523 20.8785 3.92244 20.335C4.46973 19.7804 5.09673 19.3478 5.80358 19.0373C6.51044 18.7267 7.25723 18.5714 8.04387 18.5714C8.8533 18.5714 9.60573 18.7267 10.3012 19.0373C11.008 19.3478 11.6294 19.7804 12.1652 20.335C12.7124 20.8785 13.1343 21.5106 13.4307 22.2315C13.7385 22.9414 13.8924 23.7011 13.8924 24.5108ZM11.7719 24.5108C11.7719 23.7787 11.6009 23.1133 11.2589 22.5144C10.9282 21.9154 10.4779 21.4385 9.90787 21.0836C9.34923 20.7176 8.71937 20.6072 8.0353 20.6072C7.35123 20.6072 6.73273 20.7176 6.16273 21.0836C5.59265 21.4496 5.13665 21.9376 4.79465 22.5477C4.46401 23.1466 4.29872 23.8009 4.29872 24.5108C4.29872 25.2428 4.46401 25.9138 4.79465 26.5238C5.13665 27.1339 5.60808 27.5626 6.17815 27.9286C6.74823 28.2946 7.35123 28.4286 8.0353 28.4286C8.73073 28.4286 9.36951 28.2946 9.92815 27.9286C10.4868 27.5626 10.9282 27.1339 11.2589 26.5238C11.6009 25.9027 11.7719 25.2317 11.7719 24.5108ZM41.7139 30.2143H43.9639L41.3567 25.2143C41.3738 25.2071 41.3907 25.2 41.4074 25.193C41.7847 25.0345 42.0811 24.9099 42.4282 24.6072C42.7694 24.3095 42.9372 24.0975 43.1424 23.6939C43.3578 23.2704 43.4131 22.9929 43.4639 22.5204C43.5322 21.8847 43.5029 21.4942 43.2853 20.8929C43.0826 20.3326 42.8973 19.9243 42.4639 19.6072C42.0304 19.29 41.5956 19.0357 41.0353 19.0357L36.821 18.8572V30.2143H38.8924V25.4286H39.1067L41.7139 30.2143ZM41.4282 21.8572C41.4601 22.0357 41.4282 22.3214 41.4282 22.3214C41.4282 22.3214 41.3965 22.5981 41.321 22.75C41.255 22.8828 41.071 23.0357 41.071 23.0357C41.071 23.0357 40.7824 23.2857 40.571 23.2857L38.8924 23.3572V21C38.8924 21 40.2853 21 40.571 21.0357C40.8567 21.0714 41.0312 21.1713 41.2139 21.3929C41.3409 21.5469 41.3939 21.6659 41.4282 21.8572Z" fill="black"/>
</g>
<rect width="4" height="16" fill="black"/>
<rect y="16" width="2" height="16" transform="rotate(-90 0 16)" fill="black"/>
<rect y="2" width="2" height="16" transform="rotate(-90 0 2)" fill="black"/>
<rect x="12" width="4" height="16" fill="black"/>
</g>
<defs>
<clipPath id="clip0_69_1435">
<rect width="16" height="16" fill="white"/>
</clipPath>
<clipPath id="clip1_69_1435">
<rect width="10.2857" height="16" fill="white" transform="translate(2.67871)"/>
</clipPath>
</defs>
</svg>
