<svg width="80" height="29" viewBox="0 0 80 29" fill="none" xmlns="http://www.w3.org/2000/svg">
<g clip-path="url(#clip0_24_1480)">
<path fill-rule="evenodd" clip-rule="evenodd" d="M80 -25H0V55H80V-25ZM75.6875 1.125H40.375V13.875H75.6875V1.125ZM40.375 15.125H75.6875V27.875H40.375V15.125ZM45.625 18.375H47.4375V16.5625H42V18.375H43.6875V26.4375H45.625V18.375ZM68.25 26.4375V16.5625H70.125V24.625H72.8125V26.4375H68.25ZM36.75 26.4375H38.4375V16.5625H36.625V22.9375L32.3438 16.5625H30.625V26.4375H32.4375L32.4688 19.9375L36.75 26.4375ZM13.0954 26.7812C12.3539 26.7812 11.6691 26.6445 11.0409 26.3711C10.4127 26.0878 9.85669 25.7167 9.37269 25.2577C8.88862 24.7889 8.50763 24.2419 8.22956 23.6169C7.9515 22.9821 7.8125 22.2789 7.8125 21.5073C7.8125 20.7553 7.9515 20.0619 8.22956 19.4271C8.51794 18.7824 8.89894 18.2209 9.37269 17.7423C9.84637 17.2736 10.3973 16.9024 11.0255 16.6289C11.664 16.3555 12.3539 16.2188 13.0954 16.2188C13.8781 16.2188 14.6332 16.3457 15.3438 16.6875C16.0543 17.0196 16.7049 17.4531 17.3125 18.1562L16.125 19.4688C15.7027 18.9707 14.9543 18.6018 14.5011 18.3869C14.048 18.1623 13.5794 18.05 13.0954 18.05C12.632 18.05 12.1995 18.1379 11.7979 18.3137C11.4066 18.4894 11.0513 18.7336 10.732 19.0462C10.4231 19.3489 10.1811 19.7103 10.006 20.1302C9.83094 20.5404 9.74337 20.9994 9.74337 21.5073C9.74337 22.0152 9.83094 22.4742 10.006 22.8844C10.1811 23.2848 10.4231 23.6413 10.732 23.9538C11.0409 24.2664 11.3963 24.5106 11.7979 24.6863C12.1995 24.8621 12.632 24.9062 13.0954 24.9062C13.5794 24.9062 14.048 24.8426 14.5011 24.6278C14.9543 24.4031 15.6402 23.9981 16.0625 23.5L17.2812 24.7812C16.6737 25.4844 16.0458 25.9413 15.3352 26.2832C14.6247 26.6153 13.8781 26.7812 13.0954 26.7812ZM55.6875 8.25L58.625 2.5625H56.75L54.7812 6.125L52.8438 2.5625H50.9375L53.8125 8.25V12.4375H55.6875V8.25ZM49.7812 7.5C49.8009 8.25056 49.7649 8.69275 49.5312 9.40625C49.2726 10.196 49.0518 10.6579 48.4688 11.25C47.9866 11.7396 47.6419 11.9737 47 12.2188C46.3647 12.4613 45.8026 12.4513 45.2518 12.4414C45.1435 12.4394 45.0356 12.4375 44.9276 12.4375H42V2.625H44.9276C45.5936 2.625 46.1788 2.64975 46.9062 2.9375C47.6333 3.22513 48.0416 3.47938 48.5625 4.0625C49.0284 4.58406 49.197 4.96831 49.4375 5.625C49.6935 6.324 49.7618 6.75581 49.7812 7.5ZM47.9375 7.5C47.9241 6.82231 47.8722 6.39837 47.5312 5.8125C47.2274 5.29044 46.8907 4.99625 46.4375 4.71875C45.9935 4.44125 45.3988 4.375 44.8438 4.375H43.8125V10.625H44.9375C44.9776 10.625 45.0186 10.6252 45.0605 10.6254H45.0609C45.6096 10.6282 46.3077 10.6317 46.875 10.1875C47.2961 9.85775 47.4437 9.55338 47.6562 9.0625C47.9026 8.49356 47.9497 8.11988 47.9375 7.5ZM20.75 2.4375V12.2125L24.3125 12.1875C24.664 12.1875 25.226 12.0415 25.5312 11.875C25.8458 11.6992 25.9875 11.59 26.2188 11.3125C26.4593 11.0258 26.5892 10.8203 26.7188 10.4688C26.8575 10.1172 26.9688 9.7045 26.9688 9.34375C26.9688 8.89975 26.9213 8.50044 26.6875 8.03125C26.3485 7.35081 25.25 6.71875 25.25 6.71875C25.25 6.71875 25.6526 6.37081 25.8438 6.09375C26.036 5.81519 26.1404 5.64175 26.2188 5.3125C26.338 4.81163 26.0938 4 26.0938 4C26.0938 4 25.8097 3.30956 25.4688 3C24.9971 2.57175 24.4463 2.4375 23.9375 2.4375H22.5938H20.75ZM23.5625 6.1875C23.375 6.21875 22.625 6.1875 22.625 6.1875V4.0625C22.625 4.0625 23.3125 4.03125 23.5625 4.0625C23.8125 4.09375 24.0054 4.21875 24.1875 4.4375C24.3485 4.63088 24.4108 4.78106 24.4375 5.03125C24.4544 5.1895 24.4531 5.28544 24.4062 5.4375C24.3344 5.67075 24.0312 5.9375 24.0312 5.9375C24.0312 5.9375 23.75 6.15625 23.5625 6.1875ZM23.875 10.375H22.625V7.875H23.625C24.0625 7.875 24.4946 8.00994 24.8125 8.40625C25.0324 8.68038 25.1383 8.89887 25.125 9.25C25.1158 9.493 25.0629 9.63544 24.9375 9.84375C24.8529 9.98425 24.7958 10.0635 24.6669 10.1649C24.4154 10.3626 24.023 10.375 23.875 10.375ZM38.5 7.25944C38.5 7.98725 38.3653 8.67144 38.096 9.312C37.8366 9.94281 37.4725 10.4959 37.0036 10.9715C36.5348 11.447 35.9911 11.8207 35.3726 12.0924C34.7541 12.3641 34.0907 12.5 33.3825 12.5C32.6642 12.5 31.9959 12.3641 31.3774 12.0924C30.7589 11.8109 30.2152 11.4325 29.7464 10.9569C29.2775 10.4717 28.9084 9.91369 28.6391 9.28288C28.3797 8.64238 28.25 7.96788 28.25 7.25944C28.25 6.55094 28.3847 5.88619 28.654 5.26506C28.9234 4.63425 29.2974 4.08112 29.7763 3.60556C30.2551 3.12031 30.8038 2.74181 31.4223 2.47013C32.0408 2.19838 32.6942 2.0625 33.3825 2.0625C34.0907 2.0625 34.7491 2.19838 35.3577 2.47013C35.9762 2.74181 36.5198 3.12031 36.9887 3.60556C37.4675 4.08112 37.8366 4.63425 38.096 5.26506C38.3653 5.88619 38.5 6.55094 38.5 7.25944ZM36.6445 7.25944C36.6445 6.61888 36.4949 6.03662 36.1956 5.51256C35.9063 4.9885 35.5123 4.57119 35.0135 4.26063C34.5247 3.94038 33.9736 3.84375 33.375 3.84375C32.7764 3.84375 32.2352 3.94038 31.7365 4.26063C31.2377 4.58088 30.8387 5.00787 30.5394 5.54169C30.2501 6.06575 30.1055 6.63831 30.1055 7.25944C30.1055 7.89994 30.2501 8.48706 30.5394 9.02081C30.8387 9.55463 31.2512 9.92975 31.75 10.25C32.2488 10.5703 32.7764 10.6875 33.375 10.6875C33.9835 10.6875 34.5424 10.5703 35.0312 10.25C35.5201 9.92975 35.9063 9.55463 36.1956 9.02081C36.4949 8.47738 36.6445 7.89025 36.6445 7.25944ZM66.0963 23.4995C66.3656 22.8589 66.5 22.1748 66.5 21.4469C66.5 20.7384 66.3656 20.0737 66.0963 19.4526C65.8369 18.8218 65.4675 18.2686 64.9887 17.7931C64.52 17.3078 63.9762 16.9293 63.3575 16.6576C62.7494 16.3859 62.0907 16.25 61.3825 16.25C60.6942 16.25 60.0407 16.3859 59.4222 16.6576C58.8037 16.9293 58.2551 17.3078 57.7762 17.7931C57.2974 18.2686 56.9234 18.8218 56.654 19.4526C56.3847 20.0737 56.25 20.7384 56.25 21.4469C56.25 22.1554 56.3797 22.8299 56.6391 23.4704C56.9084 24.1012 57.2775 24.6592 57.7464 25.1444C58.2152 25.62 58.7589 25.9984 59.3774 26.2799C59.9959 26.5516 60.6642 26.6875 61.3825 26.6875C62.0907 26.6875 62.7544 26.5516 63.3725 26.2799C63.9913 26.0082 64.535 25.6345 65.0038 25.159C65.4725 24.6834 65.8369 24.1303 66.0963 23.4995ZM64.1956 19.7001C64.495 20.2241 64.6444 20.8064 64.6444 21.4469C64.6444 22.0778 64.495 22.6649 64.1956 23.2083C63.9063 23.7421 63.52 24.1172 63.0312 24.4375C62.5425 24.7578 61.9835 24.875 61.375 24.875C60.7764 24.875 60.2488 24.7578 59.75 24.4375C59.2512 24.1172 58.8387 23.7421 58.5394 23.2083C58.2501 22.6746 58.1055 22.0874 58.1055 21.4469C58.1055 20.8258 58.2501 20.2532 58.5394 19.7292C58.8387 19.1954 59.2377 18.7684 59.7365 18.4481C60.2352 18.1279 60.7764 18.0312 61.375 18.0312C61.9736 18.0312 62.525 18.1279 63.0137 18.4481C63.5125 18.7587 63.9063 19.176 64.1956 19.7001ZM28.8125 21.4469C28.8125 22.1748 28.6778 22.8589 28.4085 23.4995C28.1491 24.1303 27.785 24.6834 27.3161 25.159C26.8473 25.6345 26.3036 26.0082 25.6851 26.2799C25.0666 26.5516 24.4032 26.6875 23.695 26.6875C22.9767 26.6875 22.3084 26.5516 21.6899 26.2799C21.0714 25.9984 20.5277 25.62 20.0589 25.1444C19.59 24.6592 19.2209 24.1012 18.9516 23.4704C18.6922 22.8299 18.5625 22.1554 18.5625 21.4469C18.5625 20.7384 18.6972 20.0737 18.9665 19.4526C19.2359 18.8218 19.6099 18.2686 20.0888 17.7931C20.5676 17.3078 21.1163 16.9293 21.7348 16.6576C22.3533 16.3859 23.0067 16.25 23.695 16.25C24.4032 16.25 25.0616 16.3859 25.6702 16.6576C26.2886 16.9293 26.8323 17.3078 27.3012 17.7931C27.78 18.2686 28.1491 18.8218 28.4085 19.4526C28.6778 20.0737 28.8125 20.7384 28.8125 21.4469ZM26.957 21.4469C26.957 20.8064 26.8074 20.2241 26.5081 19.7001C26.2188 19.176 25.8248 18.7587 25.326 18.4481C24.8372 18.1279 24.2861 18.0312 23.6875 18.0312C23.0889 18.0312 22.5477 18.1279 22.049 18.4481C21.5502 18.7684 21.1512 19.1954 20.8519 19.7292C20.5626 20.2532 20.418 20.8258 20.418 21.4469C20.418 22.0874 20.5626 22.6746 20.8519 23.2083C21.1512 23.7421 21.5637 24.1172 22.0625 24.4375C22.5613 24.7578 23.0889 24.875 23.6875 24.875C24.296 24.875 24.8549 24.7578 25.3438 24.4375C25.8326 24.1172 26.2188 23.7421 26.5081 23.2083C26.8074 22.6649 26.957 22.0778 26.957 21.4469ZM53.1562 26.4375H55.125L52.8438 22.0625C52.8587 22.0562 52.8734 22.05 52.8881 22.0439C53.2182 21.9051 53.4776 21.7961 53.7812 21.5312C54.0798 21.2708 54.2267 21.0853 54.4062 20.7321C54.5947 20.3616 54.6431 20.1188 54.6875 19.7054C54.7473 19.1491 54.7216 18.8074 54.5312 18.2812C54.3539 17.791 54.1917 17.4338 53.8125 17.1562C53.4333 16.8787 53.0527 16.6562 52.5625 16.6562L48.875 16.5V26.4375H50.6875V22.25H50.875L53.1562 26.4375ZM52.9062 19.125C52.9342 19.2812 52.9062 19.5312 52.9062 19.5312C52.9062 19.5312 52.8786 19.7733 52.8125 19.9062C52.7547 20.0224 52.5938 20.1562 52.5938 20.1562C52.5938 20.1562 52.3413 20.375 52.1562 20.375L50.6875 20.4375V18.375C50.6875 18.375 51.9062 18.375 52.1562 18.4062C52.4062 18.4375 52.5589 18.5249 52.7188 18.7188C52.8299 18.8536 52.8763 18.9577 52.9062 19.125Z" fill="black"/>
</g>
<defs>
<clipPath id="clip0_24_1480">
<rect width="80" height="29" fill="white"/>
</clipPath>
</defs>
</svg>
