<svg width="10" height="12" viewBox="0 0 10 12" fill="none" xmlns="http://www.w3.org/2000/svg">
<path d="M5.04636 11.4998C4.26461 10.833 3.54001 10.102 2.88011 9.31436C1.88983 8.13159 0.713868 6.37012 0.713868 4.69159C0.713438 3.83436 0.967323 2.99626 1.44339 2.28337C1.91946 1.57047 2.59632 1.01483 3.38829 0.686764C4.18027 0.358696 5.05177 0.272945 5.8925 0.440366C6.73323 0.607787 7.5054 1.02085 8.11128 1.62729C8.51467 2.02888 8.83441 2.5065 9.05198 3.03248C9.26956 3.55847 9.38066 4.12239 9.37885 4.69159C9.37885 6.37012 8.20288 8.13159 7.2126 9.31436C6.5527 10.1019 5.8281 10.833 5.04636 11.4998ZM5.04636 2.83481C4.55391 2.83481 4.08163 3.03044 3.73341 3.37865C3.3852 3.72687 3.18958 4.19915 3.18958 4.69159C3.18958 5.18404 3.3852 5.65632 3.73341 6.00454C4.08163 6.35275 4.55391 6.54838 5.04636 6.54838C5.53881 6.54838 6.01109 6.35275 6.3593 6.00454C6.70751 5.65632 6.90314 5.18404 6.90314 4.69159C6.90314 4.19915 6.70751 3.72687 6.3593 3.37865C6.01109 3.03044 5.53881 2.83481 5.04636 2.83481Z" fill="white"/>
</svg>
