<svg width="20" height="20" viewBox="0 0 20 20" fill="none" xmlns="http://www.w3.org/2000/svg">
<path d="M16.0177 12.7235L13.901 12.4818C13.3927 12.4235 12.8927 12.5985 12.5344 12.9568L11.001 14.4901C8.64271 13.2901 6.70938 11.3651 5.50938 8.99847L7.05104 7.4568C7.40938 7.09847 7.58438 6.59847 7.52604 6.09014L7.28438 3.99014C7.18438 3.14847 6.47604 2.51514 5.62604 2.51514H4.18438C3.24271 2.51514 2.45938 3.29847 2.51771 4.24014C2.95938 11.3568 8.65104 17.0401 15.7594 17.4818C16.701 17.5401 17.4844 16.7568 17.4844 15.8151V14.3735C17.4927 13.5318 16.8594 12.8235 16.0177 12.7235Z" fill="black" fill-opacity="0.32"/>
</svg>
