<svg width="12" height="11" viewBox="0 0 12 11" fill="none" xmlns="http://www.w3.org/2000/svg">
<path d="M8.57199 4.53537H7.92913C7.92887 4.2797 7.8272 4.03458 7.64641 3.85379C7.46563 3.67301 7.22051 3.57134 6.96484 3.57108V2.92822C7.39093 2.92873 7.79941 3.09822 8.1007 3.39951C8.40199 3.70079 8.57148 4.10928 8.57199 4.53537Z" fill="white"/>
<path d="M9.85767 4.53558H9.21481C9.21413 3.93905 8.97686 3.36715 8.55505 2.94534C8.13324 2.52353 7.56134 2.28626 6.96481 2.28558V1.64272C7.73179 1.64357 8.4671 1.94863 9.00943 2.49096C9.55177 3.03329 9.85682 3.7686 9.85767 4.53558ZM7.39328 7.26193L8.11328 6.54193C8.20965 6.44554 8.3322 6.37953 8.46572 6.35211C8.59925 6.32468 8.73789 6.33704 8.86446 6.38765L9.74131 6.73865C9.87055 6.79036 9.98134 6.87961 10.0594 6.99488C10.1374 7.11015 10.1791 7.24616 10.1791 7.38536V8.97997C10.1793 9.07475 10.1602 9.16857 10.1229 9.2557C10.0856 9.34284 10.0309 9.42144 9.96221 9.4867C9.89349 9.55197 9.81216 9.60252 9.72322 9.63527C9.63428 9.66801 9.5396 9.68227 9.44496 9.67715C3.2986 9.29465 2.05724 4.08879 1.82678 2.09529C1.81562 1.99783 1.82521 1.89912 1.85494 1.80563C1.88467 1.71215 1.93385 1.62602 1.99925 1.55291C2.06465 1.47979 2.14479 1.42135 2.23439 1.38143C2.324 1.34151 2.42104 1.32102 2.51914 1.32129H4.08546C4.22466 1.32129 4.36067 1.36299 4.47594 1.44102C4.59121 1.51906 4.68046 1.62984 4.73217 1.75908L5.08285 2.63593C5.13346 2.7625 5.14581 2.90114 5.11839 3.03467C5.09096 3.16819 5.02496 3.29074 4.92856 3.38711L4.20856 4.10711C4.20856 4.10711 4.60778 6.91383 7.39328 7.26193Z" fill="white"/>
</svg>
